<svg xmlns="http://www.w3.org/2000/svg" width="256" height="256"><path fill-opacity=".016" d="M0 128.004v128.004l128.25-.254 128.25-.254.254-127.75L257.008 0H0v128.004m.485.496c0 70.4.119 99.053.265 63.672.146-35.38.146-92.98 0-128C.604 29.153.485 58.1.485 128.5" fill="#1976D2" fill-rule="evenodd"/><path fill-opacity=".279" d="M86 17.393C86 24.665 85.65 25 78.054 25h-4.782l-.636 4.64c-.35 2.551-.643 6.264-.651 8.25-.011 2.524-.286 3.183-.914 2.191-1.531-2.419-2.22 6.221-1.884 23.628l.313 16.209-5.5.291-5.5.291-.295 6.705-.294 6.706-6.706.294-6.705.295-.307 5.976c-.168 3.287-.843 6.317-1.5 6.735-.656.417-3.485.765-6.285.774l-5.093.015-.907 6.75-.908 6.75-6.25.298-6.25.297v4.932c0 2.713-.707 6.7-1.572 8.861-1.25 3.124-1.506 7.098-1.25 19.418.358 17.216.46 17.499 8.053 22.324 4.079 2.592 4.378 3.342 5.727 14.37.826 6.749 1.249 7.777 4.23 10.269 4.819 4.03 8.888 7.998 12.421 12.111 2.672 3.111 3.71 3.62 7.386 3.62 3.804 0 4.725-.498 8.321-4.5 5.532-6.156 7.114-5.961 8.7 1.071l.752 3.336-5.634.297-5.634.296-.265 6.5c-.146 3.575-.777 7.499-1.403 8.72-1.598 3.118.031 8.088 3.5 10.678 2.792 2.085 3.328 2.102 67.668 2.102s64.876-.017 67.668-2.102c3.469-2.59 5.098-7.56 3.5-10.678-.626-1.221-1.257-5.145-1.403-8.72-.251-6.163-.395-6.506-2.765-6.608-9.635-.418-8.865-.056-8.027-3.774 1.598-7.083 3.169-7.285 8.711-1.118 3.596 4.002 4.517 4.5 8.321 4.5 3.676 0 4.714-.509 7.386-3.62 3.533-4.113 7.602-8.081 12.421-12.111 2.981-2.492 3.404-3.52 4.23-10.269 1.349-11.028 1.648-11.778 5.727-14.37 7.614-4.838 7.696-5.067 8.049-22.651.258-12.861.024-16.383-1.25-18.848-.871-1.685-1.568-5.498-1.568-8.581V122h-12.797l-.703-7-.703-7h-4.817c-7.634 0-7.98-.33-7.98-7.607V94h-14V80l-5.75.001-5.75.002.313-16.252c.336-17.446-.352-26.09-1.884-23.67-.624.986-.931.198-1.006-2.581-.059-2.2-.188-5.8-.287-8l-.18-4-4.478-.264c-8.681-.511-8.978-.715-8.978-6.173 0-8.805 3.924-8.063-42.607-8.063H86v6.393m85.1 11.312c.729 1.212 1.54 1.989 1.803 1.726.263-.263-.333-1.255-1.324-2.205-1.722-1.649-1.744-1.628-.479.479m7.249 6.685c-.71.811-.812 1.848-.265 2.712.685 1.082.889 1.102.901.089.008-.72.423-1.057.922-.749.498.309.671-.34.383-1.441-.288-1.1-.583-1.984-.657-1.963-.073.021-.651.629-1.284 1.352m-25.536 2.293c.721.289 1.584.253 1.916-.079.332-.332-.258-.568-1.312-.525-1.165.048-1.402.285-.604.604m-5.975 48.894c1.436 3.068 2.764 5.118 2.951 4.556.187-.562-.249-2.06-.97-3.328-1.263-2.223-1.453-2.843-1.704-5.555-.063-.687-.739-1.25-1.501-1.25-1.034 0-.724 1.413 1.224 5.577m7.76-4.841c-1.133 1.132-.595 2.477.78 1.949.758-.291 1.91-.001 2.559.643.906.898 1.033.782.545-.501-.697-1.831-2.938-3.038-3.884-2.091M136.031 90.5c0 .55.436 1.675.969 2.5.533.825.969 1.05.969.5s-.436-1.675-.969-2.5c-.533-.825-.969-1.05-.969-.5m-13.952 2.083c.048 1.165.285 1.402.604.605.289-.722.253-1.585-.079-1.917-.332-.332-.568.258-.525 1.312m-44.736 76.612c-.464.718-.944 5.918-1.067 11.555L76.051 191h6.677l.15-8.25c.083-4.537-.226-9.6-.686-11.25-.896-3.217-3.47-4.44-4.849-2.305m97 0c-.464.718-.944 5.918-1.067 11.555l-.225 10.25h6.677l.15-8.25c.083-4.537-.226-9.6-.686-11.25-.896-3.217-3.47-4.44-4.849-2.305" fill="#1976D2" fill-rule="evenodd"/><path fill-opacity=".099" d="M86.792 17.25c-.115 3.438-.266 8.95-.336 12.25-.22 10.279.392 9.5-7.456 9.5h-7v41H59v14H45v14H31l-.125 12.5c-.069 6.875-.238 14.3-.375 16.5-.137 2.2-.306 5.827-.375 8.059-.078 2.532-.517 3.817-1.166 3.416-.572-.354-.772-1.618-.443-2.809.534-1.937.332-1.876-1.912.584-3.045 3.338-3.937 3.481-3.13.5.594-2.191.576-2.197-.682-.216-1.396 2.197-2.496 2.439-4.712 1.037-1.117-.708-1.252-.491-.631 1.015.434 1.053.715 2.364.624 2.914-.091.55-.411 3.588-.711 6.75-.513 5.388-.412 5.75 1.604 5.75 1.241 0 1.879.442 1.507 1.044-1.015 1.642 2.296 5.878 5.958 7.624 2.854 1.361 3.421 2.237 3.951 6.1.34 2.481.618 6.473.618 8.872 0 3.735.295 4.36 2.059 4.36 1.176 0 1.782.448 1.414 1.044-1.005 1.625 1.911 5.309 5.903 7.459 1.993 1.074 3.624 2.338 3.624 2.811 0 1.572 6.415 7.686 8.065 7.686 1.919 0 5.237-3.365 4.271-4.331-.368-.368.081-.669.997-.669 1 0 1.667-.8 1.667-2 0-1.1.338-1.919.75-1.82.413.099 2.394-.638 4.403-1.639 3.609-1.797 6.41-5.821 5.301-7.616-.315-.509.13-.925.987-.925 1.335 0 1.559 1.94 1.559 13.5V219H59l-.011 3.25c-.006 1.787-.29 4.938-.631 7l-.62 3.75h3.606c3.448 0 3.581.127 3.024 2.908-.453 2.266-.131 3.149 1.46 4 2.862 1.532 121.482 1.532 124.344 0 1.577-.844 1.912-1.74 1.472-3.94-.523-2.615-.308-2.872 2.643-3.157 1.767-.171 3.1-.649 2.963-1.061-.137-.412-.25-3.45-.25-6.75v-6h-13v-13.5c0-11.56.224-13.5 1.559-13.5.857 0 1.302.416.987.925-1.109 1.795 1.692 5.819 5.301 7.616 2.009 1.001 3.991 1.738 4.403 1.639.412-.099.75.72.75 1.82 0 1.2.667 2 1.667 2 .916 0 1.365.301.997.669-.966.966 2.352 4.331 4.271 4.331 1.65 0 8.065-6.114 8.065-7.686 0-.473 1.631-1.737 3.624-2.811 3.992-2.15 6.908-5.834 5.903-7.459-.368-.596.238-1.044 1.414-1.044 1.816 0 2.06-.62 2.07-5.25.02-9.716.861-12.319 4.549-14.077 3.67-1.75 6.983-5.986 5.967-7.629-.368-.596.238-1.044 1.414-1.044 1.907 0 2.059-.59 2.059-8 0-7.221-.992-10.085-2.338-6.75-.355.879-.528.901-.583.071-.043-.648.629-1.886 1.493-2.751 1.43-1.43 1.362-1.549-.75-1.321-1.595.172-2.242-.218-2.066-1.249.142-.825-1.306.246-3.217 2.379-2.936 3.278-3.405 3.522-3.03 1.573.244-1.268.953-2.619 1.574-3.004.763-.471.793-.906.092-1.34-.571-.353-1.744.366-2.607 1.598-1.52 2.17-1.574 2.086-1.753-2.733-.101-2.735-.282-5.873-.401-6.973-.119-1.1-.261-7.737-.315-14.75L225 108h-14V94h-6.375c-6.34 0-6.378-.017-7-3.125-.344-1.719-.625-4.869-.625-7V80h-13V66h-15.088l.294 7.25.294 7.25 6.75.296 6.75.295v13.955c0 11.261.269 13.954 1.393 13.954.766 0 1.652.675 1.969 1.5.316.825 1.094 1.5 1.729 1.5.831 0 .806-.419-.091-1.5-1.021-1.23-.948-1.5.409-1.5.91 0 1.913.675 2.229 1.5.317.825 1.026 1.5 1.576 1.5s.741-.675.424-1.5c-.415-1.084.11-1.5 1.893-1.5 1.358 0 2.469.477 2.469 1.059s-.403.81-.895.506c-1.251-.774-2.067 1.785-1.462 4.589.471 2.185.406 2.224-.951.567-1.26-1.541-1.534-1.575-2.042-.25-.666 1.735.167 4.529 1.35 4.529.432 0 1.087.788 1.454 1.75.368.963-.954.18-2.936-1.738-2.981-2.885-3.766-3.231-4.532-2-.718 1.154-1.071.77-1.571-1.711-.354-1.759-1.493-3.967-2.53-4.905-2.183-1.976-2.192-1.952-.931 2.445.86 2.998.795 3.196-.654 1.994-1.432-1.188-1.424-.977.071 1.915l1.68 3.25H169.866l.227-7.007c.125-3.853-.07-7.303-.433-7.666-.363-.363-.66-.201-.66.361 0 .573-2.858 1.101-6.5 1.201l-6.5.179V94h-4.927c-3.851 0-5.026-.382-5.384-1.75-.435-1.667-.463-1.667-.573 0-.107 1.611-1.898 1.75-22.616 1.75H100v13.785l-5.093-.275c-8.577-.462-8.907-.199-8.907 7.107V121H72l-.16 6.25c-.099 3.881-.319 4.943-.578 2.803-.23-1.896-1.153-3.984-2.05-4.64-1.396-1.021-1.449-1.597-.367-3.972 1.129-2.479 1.098-2.639-.29-1.487-.855.71-1.555 1.937-1.555 2.727 0 .791-.447 1.161-.993.824-.604-.374-.161-2.255 1.133-4.809 2.109-4.165 2.11-4.183.064-2.356-2.18 1.947-6.144 1.532-6.274-.657-.039-.651-.457-.283-.93.817-.648 1.508-.877.844-.93-2.704l-.07-4.705 6.75-.295 6.75-.296.278-13.75.278-13.75H87V67l3.25-.099c1.787-.055 4.825-.168 6.75-.25l3.5-.151-.339 6.715-.34 6.715 7.53-.04c6.571-.034 7.463-.252 7.014-1.715-.449-1.456-.369-1.446.609.075 1.891 2.94 3.178 1.945 1.552-1.2-1.901-3.675-1.905-4.133-.031-3.413 1.315.504 1.323.241.066-2.182-.786-1.516-2.022-3.157-2.745-3.647-.96-.65-.798-.812.597-.6 1.465.224 2.286-.76 3.51-4.208.879-2.475 1.879-4.95 2.223-5.5.344-.55.504-2.469.355-4.264-.217-2.619.298-3.669 2.607-5.313 1.583-1.127 3.326-1.773 3.874-1.434.574.355.743-.041.4-.937-.328-.854-.119-1.552.465-1.552.606 0 .343-1.25-.617-2.921-.922-1.607-2.016-2.711-2.433-2.454-.416.257-.203 1.376.473 2.486 1.063 1.745.891 2.282-1.27 3.954a180.13 180.13 0 00-3.763 2.986c-1.792 1.492-3.282.24-2.797-2.351.226-1.21.445-2.537.486-2.95.041-.413.551-.75 1.133-.75s.741.562.353 1.25c-.446.79-.191.744.691-.125 1.116-1.099 1.137-1.47.105-1.847-1.003-.367-1.027-.791-.107-1.899.651-.785.935-1.676.63-1.981-.304-.304-1.683 1.109-3.064 3.142l-2.511 3.695-.328-2.867c-.324-2.834-.415-2.872-7.623-3.163l-7.294-.294.294-6.706c.227-5.162.64-6.705 1.795-6.705.825 0 1.725-.225 2-.5.275-.275 1.4-1.167 2.5-1.983 1.944-1.441 1.951-1.424.25.579-2.416 2.847-2.202 4.123.311 1.849 1.567-1.419 2.246-1.566 2.833-.616.576.931 1.467.984 3.504.21 3.52-1.339 3.602-1.327 3.602.52 0 .964-.477 1.285-1.25.84-.687-.396-.928-.363-.535.072.393.436.215 1.745-.396 2.91-1.09 2.081-1.073 2.086.972.271 2.172-1.927 4.209-1.52 4.209.84 0 .755-.832 1.637-1.848 1.96-2.24.711-4.804 5.588-2.881 5.478 1.455-.084 5.541-1.758 4.538-1.86-.38-.038-.058-1.289.715-2.78 1.217-2.344 1.209-2.928-.061-4.331-.807-.892-1.191-1.897-.854-2.235.338-.337-.55-1.691-1.971-3.009l-2.585-2.395 1.973-3.872C119.318 11.953 119.308 12 118 12c-.55 0-1 .702-1 1.559s-.412 1.305-.915.994c-.503-.311-1.121 0-1.375.691-.345.941-.763.971-1.672.119-.854-.801-.891-1.336-.125-1.809.598-.37 1.087-1.081 1.087-1.582 0-1.123-3.229-.013-4.235 1.455-.461.673-.74.502-.75-.459-.021-2.094-4.691-2.369-5.825-.344-.815 1.457-.945 1.456-1.51-.015-.486-1.268-2.108-1.609-7.649-1.609H87l-.208 6.25m34.709-3.247c.379 1.195.033 2.605-.858 3.497-1.324 1.324-1.324 1.833.005 4.497.824 1.651 1.578 3.001 1.675 2.999.097-.002.3-2.927.449-6.5.176-4.188-.114-6.496-.817-6.496-.635 0-.825.835-.454 2.003M109 17.122c0 1.767.25 1.916 1.489.887 1.505-1.249 1.184-3.009-.548-3.009-.518 0-.941.955-.941 2.122m29.184 9.382c.627 1.378 1.275 2.37 1.439 2.207.608-.609-.888-4.711-1.718-4.711-.474 0-.349 1.127.279 2.504M77 27.5c-.718.865-.815 1.5-.229 1.5.558 0 1.274-.675 1.591-1.5.316-.825.419-1.5.229-1.5-.19 0-.906.675-1.591 1.5m45.695-.766c-.983 1.701 1.023 9.266 2.457 9.266.505 0 .414-.942-.202-2.093s-.855-3.149-.531-4.439c.559-2.228-.785-4.359-1.724-2.734m5.942 2.578c-.346 1.376-.932 3.293-1.303 4.259-.46 1.2-.303 1.528.496 1.034.644-.398 1.17-1.559 1.17-2.581 0-1.021.436-2.007.968-2.191.551-.19.608-.912.132-1.678-.617-.993-1-.69-1.463 1.157m12.818 9.945c-.285.742-.391 7.175-.236 14.296L141.5 66.5l7.278.294 7.277.295-.277-14.295L155.5 38.5l-6.764-.296c-4.967-.217-6.901.062-7.281 1.053m-25.699 9.993c-.252.688-.523 4.625-.602 8.75-.136 7.067-.066 7.327 1.211 4.5.846-1.871 1.033-3.634.496-4.684-1.228-2.402-1.069-3.11.556-2.486 2.148.824 2.83-2.305 1.083-4.971-1.771-2.703-2.11-2.84-2.744-1.109m11.323.333c.048 1.165.285 1.402.604.605.289-.722.253-1.585-.079-1.917-.332-.332-.568.258-.525 1.312M131 52c0 1.1.408 2 .906 2 .499 0 .671-.9.384-2-.288-1.1-.696-2-.907-2-.21 0-.383.9-.383 2m-10 10.5c-.685.825-.933 1.5-.551 1.5s1.369-.675 2.194-1.5 1.073-1.5.551-1.5c-.522 0-1.509.675-2.194 1.5m-2.645 6.371c-.954 2.528-.874 2.816.669 2.412 1.117-.292 1.703-1.334 1.615-2.87-.184-3.202-.962-3.046-2.284.458m-9.542-1.188c.721.289 1.584.253 1.916-.079.332-.332-.258-.568-1.312-.525-1.165.048-1.402.285-.604.604m18.741 1.654c-1.006.736-1.578 1.973-1.271 2.75.402 1.016.581.905.638-.396.043-.995.482-1.56.974-1.256.493.305 1.153-.119 1.469-.941.703-1.833.505-1.85-1.81-.157m-32.475 1.246c.048 1.165.285 1.402.604.605.289-.722.253-1.585-.079-1.917-.332-.332-.568.258-.525 1.312m17.037.167C112.052 71.987 111.55 73 111 73c-.55 0-1 .775-1 1.723 0 1.409.285 1.315 1.57-.519.863-1.233 1.365-3.02 1.116-3.973-.336-1.28-.484-1.145-.57.519m20.134 3.869c0 1.355.281 2.113.625 1.684.344-.429.913-1.01 1.264-1.291.352-.282.071-1.04-.625-1.685-.994-.922-1.264-.646-1.264 1.292m-9.724-.261c-1.121.819-1.427 1.585-.791 1.978.571.353 1.603-.039 2.294-.871 1.704-2.053.751-2.755-1.503-1.107M119 78c0 .55.45 1 1 1s1-.45 1-1-.45-1-1-1-1 .45-1 1m60.032 4.559c.017.517.692 1.815 1.5 2.882.807 1.068 1.454 1.518 1.436 1-.017-.517-.692-1.815-1.5-2.882-.807-1.068-1.454-1.518-1.436-1m-83.573 9.508c-.363.586-.445 1.281-.183 1.543s.743-.218 1.069-1.067c.676-1.762.1-2.072-.886-.476M78 95c0 .55.45 1 1 1s1-.45 1-1-.45-1-1-1-1 .45-1 1m100.064 2.5c0 .55.66 1.874 1.468 2.941.807 1.068 1.468 1.491 1.468.941 0-.55-.661-1.873-1.468-2.941-.808-1.067-1.468-1.491-1.468-.941m-85.145 3.098C91.257 102.6 90.683 106 92.006 106c.547 0 .994-.59.994-1.311 0-.722.918-2.297 2.039-3.5 1.486-1.596 1.655-2.189.622-2.189-.779 0-2.013.719-2.742 1.598M174 103.741c0 .472.54 1.399 1.2 2.059.66.66.83 1.2.378 1.2-.453 0-.263.675.422 1.5 2.134 2.572 3.125 1.643 1.533-1.437-1.553-3.002-3.533-4.864-3.533-3.322m-68.25 5.064l-4.75.305v33.362l2.25-3.219c2.168-3.101 3.75-4.132 3.75-2.444 0 .445-.613 1.647-1.362 2.671-.749 1.024-1.161 2.629-.916 3.566.393 1.501.75 1.421 3.008-.671 1.409-1.306 3.171-2.375 3.916-2.375 1.578 0 1.827 2.59.338 3.51-1.713 1.058-.114 2.337 2.173 1.739 1.543-.404 1.939-.214 1.395.667-.56.906-.205.884 1.343-.083 1.158-.723 2.105-1.854 2.105-2.515 0-.66.385-1.438.856-1.729.47-.291.668.695.439 2.191-.348 2.268-.236 2.436.671 1.012.598-.94 1.714-1.468 2.481-1.174.889.341 1.554-.307 1.837-1.792.407-2.132.455-2.101.58.365.139 2.748 2.055 4.992 2.236 2.618.055-.72.464-.184.911 1.191l.811 2.5.706-2.25c.388-1.238 1.151-2.25 1.696-2.25.544 0 .707.739.36 1.641-.527 1.373-.38 1.435.893.378 1.269-1.053 1.523-.961 1.523.55 0 1.668.1 1.68 1.25.156.688-.912 2.15-1.516 3.25-1.341 1.145.181 2.61-.548 3.427-1.705 1.392-1.973 1.443-1.976 2.111-.1.515 1.448.863.874 1.411-2.333.401-2.34 1.082-4.036 1.515-3.768.432.267.558-1.644.278-4.246-.279-2.603-.218-4.464.137-4.137.354.327.977 3.897 1.383 7.932.692 6.883.842 7.232 2.424 5.647 1.582-1.585 1.706-1.488 2.009 1.568.177 1.792.432-5.404.566-15.992l.243-19.25-2.252-.083a69.737 69.737 0 01-4.339-.321c-1.977-.225-2.064.131-1.634 6.714.343 5.273.161 6.771-.757 6.203-.666-.411-1.003-1.83-.75-3.154.253-1.324.13-2.61-.272-2.859-.402-.249-.525-1.535-.272-2.859s-.106-2.756-.798-3.184c-1.243-.769-28.984-1.242-38.18-.652m-22.671 1.778c.048 1.165.285 1.402.604.605.289-.722.253-1.585-.079-1.917-.332-.332-.568.258-.525 1.312m112.485 2.71c.376.986.935 1.541 1.243 1.233.308-.307.001-1.114-.683-1.793-.988-.98-1.102-.865-.56.56m.515 4.29c.048 1.165.285 1.402.604.605.289-.722.253-1.585-.079-1.917-.332-.332-.568.258-.525 1.312M120.5 118c-.34.55-.141 1 .441 1s1.059-.45 1.059-1-.198-1-.441-1-.719.45-1.059 1m-50.936 5.707c-.542 1.425-.428 1.54.56.56.684-.679.991-1.486.683-1.793-.308-.308-.867.247-1.243 1.233m114.515.876c.048 1.165.285 1.402.604.605.289-.722.253-1.585-.079-1.917-.332-.332-.568.258-.525 1.312M132.181 135.5c-.02 5.294.099 5.665 1.014 3.151.707-1.941.714-3.853.023-6-.925-2.876-1.016-2.627-1.037 2.849m51.977-2.5c0 1.375.227 1.938.504 1.25.278-.687.278-1.812 0-2.5-.277-.687-.504-.125-.504 1.25M127 140.5c0 .825.45 1.5 1 1.5s1-.675 1-1.5-.45-1.5-1-1.5-1 .675-1 1.5m9 1c0 1.375.388 2.5.861 2.5.474 0 .647-1.125.384-2.5s-.651-2.5-.862-2.5c-.21 0-.383 1.125-.383 2.5m4.635-.719c-.277.448-.145 1.393.292 2.101.621 1.004.925.946 1.39-.266.629-1.64-.823-3.224-1.682-1.835m-32.885 7.881c.688.278 1.813.278 2.5 0 .688-.277.125-.504-1.25-.504s-1.937.227-1.25.504M140 150c0 1.1.173 2 .383 2 .211 0 .619-.9.907-2 .287-1.1.115-2-.384-2-.498 0-.906.9-.906 2m-63.952 9.905c-.799.53-1.811.741-2.25.47-.439-.271-.798 6.509-.798 15.066V191h13v-15.333c0-11.52-.311-15.371-1.25-15.484-.687-.082-2.6-.395-4.25-.695-1.65-.3-3.654-.112-4.452.417m97 0c-.799.53-1.811.741-2.25.47-.439-.271-.798 6.509-.798 15.066V191h13v-15.333c0-11.52-.311-15.371-1.25-15.484-.687-.082-2.6-.395-4.25-.695-1.65-.3-3.654-.112-4.452.417M98.563 220.58c-.729.729-1.498 1.234-1.711 1.122-.212-.111-.04.226.381.748.422.522.774 2.098.782 3.5.012 1.903.244 2.189.917 1.126.624-.986.85-.373.734 2L99.5 232.5l7.25.315 7.25.316v-14.166l-7.056.145c-4.347.09-7.565.654-8.381 1.47m52.996.233c-1.248 3.932 2.653 9.862 4.647 7.065.741-1.039.832-.917.371.499-1.025 3.147 1.224 4.623 7.045 4.623H169v-14h-6.969c-5.559 0-6.86.283-6.431 1.399.295.769.106 1.664-.419 1.989-.525.325-.893-.144-.818-1.041.199-2.367-2.084-2.802-2.804-.534m-50.48 4.77c.048 1.165.285 1.402.604.605.289-.722.253-1.585-.079-1.917-.332-.332-.568.258-.525 1.312m-6.449.627c.298.483.044 1.478-.565 2.212-.848 1.021-.669 1.448.764 1.823 1.501.393 1.851-.044 1.771-2.209-.055-1.485-.643-2.7-1.306-2.701-.663-.001-.962.393-.664.875m57.365 3.793c-1.919 1.186-.718 2.24 2.084 1.828 1.898-.279 2.024-.518.802-1.524-.904-.745-1.988-.859-2.886-.304" fill="#1976D2" fill-rule="evenodd"/><path fill-opacity=".638" d="M100.222 52.75l.278 13.75 6.75.296 6.75.295V39H99.944l.278 13.75m41.778.33v14.079l6.75-.329 6.75-.33.278-13.75.278-13.75H142v14.08M73 73.139V80h13l-.001-6.75-.001-6.75-6.499-.111L73 66.278v6.861m97 .361V80h13V67h-13v6.5m-91.921-2.917c.048 1.165.285 1.402.604.605.289-.722.253-1.585-.079-1.917-.332-.332-.568.258-.525 1.312M60.649 84.25c.275 2.962.224 3.028-.574.75-.687-1.96-.897-1.159-.975 3.711l-.1 6.211-7-.403-7-.403V108l-3.25.14c-1.788.077-4.937.038-7-.086l-3.75-.226V190.909l6.75.295 6.75.296.296 6.75.295 6.75H59v-14h13l.007-13.75c.004-7.562.294-16.787.645-20.5l.637-6.75H85.82l.655 8.25c.36 4.537.513 13.875.34 20.75l-.315 12.5H72.996l.002 13.75L73 219H59v14h28.156l-.223-3.25c-.123-1.787-.158-4.937-.078-7L87 219h27v14h28v-14h28v14h27v-14h-14v-27.725l-2.75.344c-1.512.189-4.662.076-7-.251l-4.25-.595.005-9.137c.002-5.025.296-14.198.652-20.386l.649-11.25h12.415l.631 5.25c.347 2.887.635 12.113.639 20.5L184 191h13v14h14v-14h14.022l-.261-41.25-.261-41.25-4-.093c-10.376-.242-9.5.437-9.5-7.376 0-5.816-.251-6.872-1.516-6.386-.834.32-3.984.273-7-.104L197 93.856V81h-13v27h13v28.091l-6.75-.295-6.75-.296-.296-6.75-.295-6.75H170v-14h-14V94h-56V107.909l-6.75.295-6.75.296-.296 6.75-.295 6.75H73.091l-.295 6.75-.296 6.75-6.75.296-6.75.295-.011-10.295c-.006-5.663-.287-11.963-.623-14l-.613-3.703 7.244-.297 7.244-.296-.062-6.25c-.034-3.437-.088-9.4-.12-13.25L72 81H60.346l.303 3.25M205.158 100c0 1.375.227 1.938.504 1.25.278-.687.278-1.812 0-2.5-.277-.687-.504-.125-.504 1.25m0 6c0 1.375.227 1.938.504 1.25.278-.687.278-1.812 0-2.5-.277-.687-.504-.125-.504 1.25M100.23 128.75l.27 20.75 6.75.296 6.75.295V163h28V150.091l6.75-.295 6.75-.296.27-20.75.271-20.75H99.959l.271 20.75m105.849-9.167c.048 1.165.285 1.402.604.605.289-.722.253-1.585-.079-1.917-.332-.332-.568.258-.525 1.312M207.158 131c0 1.375.227 1.938.504 1.25.278-.687.278-1.812 0-2.5-.277-.687-.504-.125-.504 1.25m1.037 16.5c.02 1.65.244 2.204.498 1.231.254-.973.237-2.323-.037-3-.274-.677-.481.119-.461 1.769" fill="#1976D2" fill-rule="evenodd"/></svg>